<?xml version="1.0" encoding="UTF-8"?>
<svg width="1490px" height="1564px" viewBox="0 0 1490 1564" version="1.1" xmlns="http://www.w3.org/2000/svg" xmlns:xlink="http://www.w3.org/1999/xlink">
    <title>Artboard</title>
    <g id="Artboard" stroke="none" stroke-width="1" fill="none" fill-rule="evenodd">
        <g id="Group-5" transform="translate(1095, -141)" stroke="#FFFFFF" stroke-width="4">
            <rect id="Rectangle" x="141" y="214" width="228" height="352" rx="113.545731"></rect>
            <rect id="Rectangle" stroke-opacity="0.8" x="117" y="178" width="276" height="425" rx="138"></rect>
            <rect id="Rectangle-Copy-3" stroke-opacity="0.6" x="91" y="139" width="326" height="502" rx="163"></rect>
            <rect id="Rectangle-Copy-4" stroke-opacity="0.4" x="64" y="97" width="381" height="586" rx="190.5"></rect>
            <rect id="Rectangle-Copy-5" stroke-opacity="0.2" x="33" y="49" width="444" height="682" rx="222"></rect>
            <rect id="Rectangle-Copy-6" stroke-opacity="0.05" x="2" y="2" width="505" height="776" rx="252.5"></rect>
        </g>
        <g id="Group-5-Copy" transform="translate(-255, 223)" stroke="#FFFFFF" stroke-width="4">
            <rect id="Rectangle" x="141" y="214" width="228" height="352" rx="113.545731"></rect>
            <rect id="Rectangle" stroke-opacity="0.8" x="117" y="178" width="276" height="425" rx="138"></rect>
            <rect id="Rectangle-Copy-3" stroke-opacity="0.6" x="91" y="139" width="326" height="502" rx="163"></rect>
            <rect id="Rectangle-Copy-4" stroke-opacity="0.4" x="64" y="97" width="381" height="586" rx="190.5"></rect>
            <rect id="Rectangle-Copy-5" stroke-opacity="0.2" x="33" y="49" width="444" height="682" rx="222"></rect>
            <rect id="Rectangle-Copy-6" stroke-opacity="0.05" x="2" y="2" width="505" height="776" rx="252.5"></rect>
        </g>
        <g id="Group-5-Copy-2" transform="translate(481, 817)" stroke="#FFFFFF" stroke-width="4">
            <rect id="Rectangle" x="256" y="388" width="419" height="645" rx="209.5"></rect>
            <rect id="Rectangle" stroke-opacity="0.8" x="212" y="323" width="506" height="778" rx="253"></rect>
            <rect id="Rectangle-Copy-3" stroke-opacity="0.6" x="165" y="252" width="598" height="918" rx="299"></rect>
            <rect id="Rectangle-Copy-4" stroke-opacity="0.4" x="115" y="175" width="698" height="1072" rx="349"></rect>
            <rect id="Rectangle-Copy-5" stroke-opacity="0.2" x="59" y="87" width="813" height="1247" rx="406.5"></rect>
            <rect id="Rectangle-Copy-6" stroke-opacity="0.05" x="2" y="2" width="924" height="1418" rx="462"></rect>
        </g>
    </g>
</svg>